<svg width="265" height="171" viewBox="0 0 265 171" fill="none" xmlns="http://www.w3.org/2000/svg">
<path d="M256.066 43.9341C227.735 15.6026 190.067 0 150 0C109.933 0 72.265 15.6026 43.9341 43.9341C15.6032 72.2657 0 109.933 0 150C0 190.067 15.6026 227.735 43.9341 256.066C72.2657 284.397 109.933 300 150 300C190.067 300 227.735 284.397 256.066 256.066C284.397 227.734 300 190.067 300 150C300 109.933 284.397 72.265 256.066 43.9341ZM249.194 249.194C222.698 275.689 187.47 290.281 150 290.281C112.53 290.281 77.3022 275.689 50.8063 249.194C24.311 222.698 9.71922 187.47 9.71922 150C9.71922 112.53 24.311 77.3022 50.8063 50.8063C77.3022 24.311 112.53 9.71922 150 9.71922C187.47 9.71922 222.698 24.311 249.194 50.8063C275.689 77.3022 290.281 112.53 290.281 150C290.281 187.47 275.689 222.698 249.194 249.194Z" fill="white" fill-opacity="0.6"/>
<path d="M228.316 109.271C225.871 110.377 224.786 113.256 225.893 115.702C230.782 126.502 233.261 138.042 233.261 150C233.261 180.058 216.954 207.688 191.145 222.388V46.3284C191.145 44.3982 190.002 42.6507 188.234 41.877C186.466 41.1027 184.407 41.4481 182.989 42.7576C178.188 47.1889 174.092 52.8494 170.591 59.3185C163.869 57.7997 156.95 57.0196 150 57.0196C148.151 57.0196 146.315 57.0805 144.492 57.1874V46.3284C144.492 43.644 142.317 41.4688 139.633 41.4688C136.949 41.4688 134.773 43.644 134.773 46.3284V58.2734C131.022 58.8941 127.345 59.739 123.758 60.7965V46.3284C123.758 43.644 121.582 41.4688 118.898 41.4688C116.215 41.4688 114.039 43.644 114.039 46.3284V64.2578C110.232 65.8608 106.554 67.7133 103.024 69.7893V46.3284C103.024 43.644 100.848 41.4688 98.1641 41.4688C95.4803 41.4688 93.3045 43.644 93.3045 46.3284V76.3589C71.2522 93.3759 57.0194 120.055 57.0194 150C57.0194 174.777 66.6518 198.088 84.1419 215.637C85.0911 216.589 86.3378 217.065 87.5838 217.065C88.8246 217.065 90.0661 216.593 91.014 215.648C92.9151 213.752 92.9203 210.676 91.0257 208.775C75.3641 193.061 66.7386 172.187 66.7386 150C66.7386 125.974 76.9723 104.296 93.3045 89.0846V108.531C93.3045 115.229 97.6509 120.931 103.672 122.963V243.305C103.672 251.701 110.502 258.531 118.898 258.531C127.295 258.531 134.125 251.701 134.125 243.305V241.622C139.35 242.52 144.666 242.981 150 242.981C153.573 242.981 157.15 242.773 160.691 242.368V243.305C160.691 251.701 167.522 258.531 175.918 258.531C184.314 258.531 191.145 251.701 191.145 243.305V233.399C222.737 217.789 242.981 185.398 242.981 150C242.981 136.65 240.211 123.762 234.746 111.693C233.64 109.247 230.761 108.162 228.316 109.271ZM134.773 68.139V93.3047H123.758V70.9796C127.33 69.7906 131.007 68.8382 134.773 68.139ZM114.039 74.9133V93.3047H103.024V81.2943C106.515 78.9001 110.194 76.7619 114.039 74.9133ZM124.406 243.305C124.406 246.342 121.935 248.812 118.898 248.812C115.862 248.812 113.391 246.342 113.391 243.305V118.899C113.391 116.214 111.215 114.039 108.531 114.039C105.494 114.039 103.024 111.568 103.024 108.531V103.024H118.886C118.891 103.024 118.895 103.025 118.898 103.025C118.902 103.025 118.907 103.024 118.911 103.024H134.773V108.531C134.773 111.568 132.303 114.039 129.266 114.039C126.582 114.039 124.406 116.214 124.406 118.899V243.305ZM150 233.261C144.655 233.261 139.333 232.745 134.125 231.741V122.964C140.146 120.931 144.492 115.229 144.492 108.532V66.9261C146.314 66.8068 148.149 66.7394 150 66.7394C155.488 66.7394 160.952 67.2831 166.291 68.3405C148.851 109.788 150.239 172.75 150.326 176.046C150.395 178.679 152.55 180.778 155.184 180.778H160.692V232.579C157.157 233.03 153.577 233.261 150 233.261ZM181.425 243.305C181.425 246.342 178.955 248.812 175.918 248.812C172.881 248.812 170.41 246.342 170.41 243.305V175.918C170.41 173.234 168.235 171.058 165.551 171.058H160C160.003 162.63 160.35 143.963 162.921 123.39C166.422 95.3813 172.746 73.8183 181.425 59.9794V243.305Z" fill="white" fill-opacity="0.6"/>
<path d="M203.87 86.5128C207.321 89.4421 210.556 92.678 213.487 96.129C214.448 97.2603 215.816 97.8428 217.193 97.8428C218.305 97.8428 219.423 97.4631 220.337 96.6875C222.382 94.9497 222.632 91.883 220.895 89.8374C217.624 85.9866 214.012 82.375 210.162 79.1054C208.116 77.3689 205.049 77.6184 203.313 79.6633C201.575 81.7082 201.825 84.775 203.87 86.5128Z" fill="white" fill-opacity="0.6"/>
<path d="M209.775 46.4475C213.183 48.4192 216.531 50.584 219.726 52.8829C220.585 53.5004 221.577 53.7978 222.56 53.7978C224.071 53.7978 225.559 53.0955 226.509 51.7756C228.076 49.5965 227.581 46.5596 225.402 44.9922C221.947 42.5073 218.327 40.1669 214.643 38.0345C212.32 36.6926 209.347 37.4838 208.002 39.8073C206.658 42.1302 207.452 45.1024 209.775 46.4475Z" fill="white" fill-opacity="0.6"/>
<path d="M276.456 123.074C271.295 98.7196 259.227 76.4755 241.556 58.747C239.661 56.8466 236.584 56.8414 234.684 58.736C232.783 60.6306 232.777 63.7077 234.672 65.6081C251.016 82.0058 262.177 102.574 266.948 125.088C267.433 127.374 269.451 128.942 271.698 128.942C272.031 128.942 272.37 128.907 272.71 128.835C275.335 128.28 277.013 125.699 276.456 123.074Z" fill="white" fill-opacity="0.6"/>
</svg>
