<svg width="303" height="259" viewBox="0 0 303 259" fill="none" xmlns="http://www.w3.org/2000/svg">
<path d="M188.991 113.299C191.055 114.753 193.753 114.259 195.017 112.195C196.281 110.131 195.632 107.278 193.567 105.823C191.503 104.368 188.805 104.862 187.541 106.926C186.277 108.991 186.926 111.844 188.991 113.299Z" fill="white" fill-opacity="0.6"/>
<path d="M96.1315 70.7058L81.1479 60.1463C62.5985 47.0738 38.2683 51.5297 26.912 70.079C15.5557 88.6284 21.4077 114.355 39.9571 127.427L54.9407 137.987C50.675 139.455 46.9012 142.355 44.3273 146.559C32.971 165.108 38.8231 190.835 57.3724 203.907L233.38 327.947C251.929 341.019 276.259 336.563 287.616 318.014C290.189 313.81 291.171 308.942 290.733 304.159L305.717 314.719C324.266 327.791 348.596 323.336 359.953 304.786C371.309 286.237 365.457 260.51 346.908 247.438L331.924 236.878C336.19 235.41 339.964 232.511 342.537 228.306C353.894 209.757 348.042 184.031 329.492 170.958L153.485 46.9179C134.936 33.8455 110.605 38.3013 99.2491 56.8506C96.6752 61.0549 95.6938 65.9224 96.1315 70.7058ZM312.408 233.825L342.331 254.913C356.759 265.081 361.31 285.091 352.477 299.518C343.645 313.944 324.721 317.411 310.294 307.243L94.2983 155.023C92.2339 153.568 89.5363 154.062 88.2719 156.126C87.008 158.191 87.657 161.044 89.7214 162.499L275.793 293.63C281.975 297.988 283.925 306.563 280.14 312.746C271.307 327.173 252.384 330.639 237.957 320.471L61.9495 196.432C47.5226 186.265 42.971 166.255 51.8033 151.828C55.589 145.645 63.6988 144.159 69.8815 148.517L74.7694 151.961C76.8338 153.416 79.5315 152.922 80.7959 150.858C82.0603 148.793 81.4108 145.94 79.3464 144.485L44.5334 119.951C30.1059 109.784 25.5548 89.774 34.3873 75.3471C43.2197 60.9203 62.1432 57.454 76.5708 67.6217L106.493 88.709C106.496 88.711 312.406 233.823 312.408 233.825ZM148.908 54.3939L324.915 178.433C339.343 188.601 343.894 208.61 335.061 223.037C331.276 229.22 323.166 230.706 316.983 226.348L111.073 81.2356C104.89 76.878 102.939 68.3026 106.724 62.1194C115.557 47.6918 134.481 44.2261 148.908 54.3939Z" fill="white" fill-opacity="0.6"/>
<path d="M302.656 254.529C296.962 255.4 295.174 255.549 291.902 253.252C288.63 250.957 288.049 249.146 286.536 243.218C284.677 235.927 281.868 224.911 269.514 216.242C257.161 207.573 246.577 209.191 239.574 210.263C233.88 211.133 232.093 211.282 228.821 208.987C225.55 206.691 224.969 204.88 223.457 198.953C221.598 191.663 218.789 180.647 206.435 171.978C194.082 163.309 183.499 164.928 176.496 165.999C170.802 166.87 169.015 167.019 165.743 164.723C162.472 162.427 161.89 160.616 160.378 154.689C158.519 147.398 155.71 136.382 143.357 127.713C137.176 123.376 129.068 124.853 125.283 131.006C121.497 137.158 123.447 145.693 129.628 150.03C132.899 152.326 133.48 154.137 134.992 160.066C136.852 167.356 139.662 178.372 152.014 187.039C164.366 195.707 174.949 194.089 181.953 193.018C187.648 192.147 189.435 191.998 192.706 194.294C195.977 196.589 196.558 198.4 198.07 204.327C199.929 211.617 202.738 222.634 215.092 231.303C227.444 239.971 238.027 238.353 245.034 237.282C250.726 236.412 252.514 236.263 255.785 238.558C259.055 240.853 259.637 242.664 261.15 248.594C263.009 255.884 265.82 266.9 278.173 275.569C290.526 284.238 301.11 282.62 308.114 281.549C313.808 280.678 315.596 280.529 318.868 282.825C322.14 285.121 322.721 286.932 324.234 292.861C326.093 300.151 328.904 311.168 341.257 319.837C347.438 324.174 355.546 322.698 359.331 316.545C363.116 310.392 361.167 301.858 354.986 297.52C351.714 295.224 351.133 293.413 349.62 287.484C347.76 280.194 344.95 269.177 332.597 260.508C320.245 251.84 309.662 253.458 302.656 254.529ZM341.158 289.277C342.754 295.531 344.014 300.47 350.41 304.959C352.47 306.404 353.12 309.249 351.858 311.3C350.597 313.352 347.894 313.843 345.833 312.398C336.459 305.819 334.372 297.641 332.695 291.067C331.1 284.813 329.84 279.874 323.444 275.386C317.048 270.898 312.303 271.623 306.294 272.542C299.981 273.507 292.125 274.708 282.749 268.13C273.375 261.552 271.289 253.373 269.611 246.798C268.016 240.545 266.756 235.606 260.361 231.119C253.967 226.632 249.222 227.357 243.211 228.276C236.898 229.241 229.042 230.442 219.669 223.865C210.294 217.286 208.208 209.108 206.533 202.537C204.938 196.283 203.678 191.343 197.283 186.856C190.888 182.368 186.142 183.093 180.133 184.013C173.821 184.978 165.964 186.179 156.591 179.602C147.217 173.024 145.131 164.846 143.454 158.273C141.859 152.019 140.6 147.079 134.204 142.591C132.144 141.146 131.494 138.301 132.756 136.25C134.017 134.199 136.72 133.707 138.781 135.152C148.155 141.731 150.241 149.909 151.917 156.481C153.512 162.735 154.771 167.674 161.167 172.162C167.563 176.65 172.308 175.924 178.316 175.005C184.629 174.04 192.485 172.838 201.859 179.417C211.234 185.995 213.32 194.173 214.995 200.744C216.59 206.998 217.85 211.938 224.245 216.425C230.641 220.914 235.386 220.188 241.394 219.269C247.707 218.304 255.563 217.102 264.938 223.68C274.313 230.259 276.398 238.437 278.075 245.011C279.67 251.264 280.93 256.203 287.326 260.691C293.722 265.179 298.468 264.454 304.477 263.535C310.79 262.57 318.646 261.369 328.021 267.947C337.396 274.526 339.482 282.704 341.158 289.277Z" fill="white" fill-opacity="0.6"/>
</svg>
