<svg width="271" height="195" viewBox="0 0 271 195" fill="none" xmlns="http://www.w3.org/2000/svg">
<path d="M281.005 175.719H276.516V135.281C276.516 128.879 273.329 123.21 268.463 119.766V114.26C268.463 106.273 261.966 99.7757 253.979 99.7757H250.627L263.452 80.9554C267.751 74.6472 266.117 66.0169 259.808 61.7173L172.778 2.40864C169.723 0.325632 166.04 -0.443118 162.404 0.246531C158.771 0.935008 155.623 2.99692 153.54 6.05317L78.4225 116.282H57.5192L62.5623 65.2288C62.6192 64.6534 62.993 64.1548 63.5145 63.9585C70.0119 61.5087 75.6428 56.9337 79.3694 51.0766C79.6629 50.6155 80.2167 50.3518 80.7897 50.4098L113.576 53.6489C115.927 53.8768 118.018 52.1647 118.25 49.8151C118.482 47.4655 116.766 45.3731 114.416 45.1411L81.6299 41.902C77.8243 41.5294 74.195 43.2831 72.1559 46.487C69.4161 50.7936 65.2758 54.1569 60.4987 55.9581C56.9028 57.3139 54.4336 60.5436 54.0539 64.388L48.9282 116.281H43.4772L51.453 35.5364C51.7401 32.6301 54.334 30.495 57.2438 30.7862L123.498 37.3311C125.848 37.5579 127.94 35.8469 128.172 33.4973C128.404 31.1477 126.688 29.0553 124.338 28.8233L58.084 22.2784C50.4879 21.529 43.6951 27.0983 42.9446 34.6956L36.5156 99.7757H25.5674C17.5811 99.7757 11.083 106.273 11.083 114.26V118.016C4.54922 121.024 0 127.629 0 135.281V281C0 291.477 8.52305 300 19.0002 300H257.516C267.993 300 276.516 291.477 276.516 281V240.562H281.005C286.304 240.562 290.615 236.252 290.615 230.953V185.329C290.616 180.03 286.304 175.719 281.005 175.719ZM253.979 108.326C257.252 108.325 259.914 110.988 259.914 114.261V116.439C259.128 116.339 258.329 116.282 257.516 116.282H239.378L244.8 108.326H253.979ZM160.605 10.8672C161.402 9.69829 162.606 8.90962 163.996 8.64595C164.328 8.58325 164.661 8.55161 164.992 8.55161C166.045 8.55161 167.074 8.86685 167.964 9.47271L254.994 68.7813C257.407 70.4261 258.032 73.7272 256.388 76.1401L229.033 116.28H222.468L235.88 96.6005C238.055 93.4089 238.234 89.3472 236.346 85.9997C233.837 81.5524 232.82 76.3159 233.482 71.254C233.974 67.4882 232.317 63.812 229.158 61.6593L184.042 30.9139C180.882 28.7606 176.854 28.5631 173.53 30.3989C169.062 32.8657 163.816 33.8342 158.759 33.1264C155.009 32.6003 151.206 34.2936 149.063 37.4372L95.3333 116.281H88.7684L160.605 10.8672ZM162.488 83.4597C143.872 83.4597 128.59 97.9751 127.345 116.281H105.678L156.127 42.2518C156.413 41.8305 156.889 41.5798 157.377 41.5798C157.442 41.5798 157.507 41.5844 157.572 41.5932C164.45 42.5553 171.584 41.2393 177.661 37.8837C178.139 37.6188 178.753 37.6569 179.227 37.9792L224.343 68.7251C224.816 69.0473 225.075 69.6052 225.005 70.1466C224.104 77.0308 225.488 84.1522 228.9 90.2003C229.174 90.686 229.14 91.3083 228.816 91.7858L212.124 116.28H197.632C196.385 97.9751 181.105 83.4597 162.488 83.4597ZM189.059 116.282H135.917C137.142 102.694 148.587 92.0097 162.488 92.0097C176.388 92.0091 187.835 102.694 189.059 116.282ZM19.6324 114.26C19.6324 110.987 22.2943 108.325 25.5674 108.325H35.6713L34.8856 116.281H19.6324V114.26ZM8.54942 135.281C8.54942 129.518 13.2375 124.83 19.0002 124.83H257.516C263.279 124.83 267.966 129.518 267.966 135.281V147.142H8.54942V135.281ZM267.966 281C267.966 286.763 263.279 291.451 257.516 291.451H19.0002C13.2375 291.451 8.54942 286.763 8.54942 281V269.139H31.6014C33.9627 269.139 35.8758 267.225 35.8758 264.864C35.8758 262.504 33.9621 260.59 31.6014 260.59H8.54942V155.692H267.966V175.719H227.322C214.516 175.719 203.422 183.184 198.158 193.989C198.14 194.026 198.12 194.061 198.102 194.097C198.058 194.189 198.019 194.285 197.975 194.377C197.349 195.709 196.804 197.088 196.36 198.51C196.359 198.514 196.358 198.518 196.357 198.522C195.41 201.562 194.9 204.793 194.9 208.141C194.9 226.018 209.444 240.562 227.321 240.562H267.966V260.59H58.9729C56.6115 260.59 54.6985 262.504 54.6985 264.864C54.6985 267.225 56.6121 269.139 58.9729 269.139H267.966V281ZM282.066 230.953C282.066 231.537 281.591 232.013 281.005 232.013H227.323C218.273 232.013 210.383 226.951 206.336 219.51C206.152 219.172 205.976 218.829 205.808 218.481C205.472 217.786 205.169 217.072 204.901 216.34C203.963 213.782 203.451 211.02 203.451 208.141C203.451 205.261 203.963 202.499 204.901 199.941C205.17 199.211 205.473 198.496 205.808 197.8C205.976 197.453 206.152 197.109 206.336 196.771C210.383 189.33 218.273 184.268 227.323 184.268H281.005C281.59 184.268 282.066 184.744 282.066 185.329V230.953Z" fill="white" fill-opacity="0.6"/>
</svg>
