<svg width="246" height="242" viewBox="0 0 246 242" fill="none" xmlns="http://www.w3.org/2000/svg">
<path d="M311.924 164.436C309.118 136.211 296.509 109.603 276.418 89.5111C259.248 72.342 238.233 61.3087 216.12 56.4028V40.8934C225.152 38.6465 231.865 30.4712 231.865 20.7541C231.865 9.31003 222.555 0 211.111 0H167.161C155.717 0 146.407 9.31003 146.407 20.7541C146.407 30.4706 153.12 38.6459 162.152 40.8934V56.4462C140.106 61.3728 119.161 72.3908 102.04 89.5117C98.2931 93.2584 94.8381 97.1888 91.6756 101.274C91.5224 101.262 91.3692 101.251 91.2129 101.251H47.7142C44.3435 101.251 41.6101 103.983 41.6101 107.355C41.6101 110.726 44.3435 113.459 47.7142 113.459H83.3697C78.8941 120.952 75.2854 128.82 72.5385 136.921H6.10414C2.73343 136.921 0 139.654 0 143.025C0 146.396 2.73343 149.129 6.10414 149.129H69.0891C67.3298 156.851 66.3202 164.71 66.0596 172.591H39.0665C35.6958 172.591 32.9623 175.324 32.9623 178.696C32.9623 182.067 35.6958 184.8 39.0665 184.8H66.2543C66.7695 192.701 68.0398 200.561 70.0657 208.262H30.5207C27.15 208.262 24.4165 210.995 24.4165 214.366C24.4165 217.738 27.15 220.47 30.5207 220.47H73.9614C79.9495 236.311 89.3078 251.158 102.04 263.89C122.15 284.001 148.786 296.613 177.04 299.405C181.072 299.803 185.108 300 189.138 300C212.957 300 236.474 293.107 256.429 280.112C259.254 278.272 260.053 274.491 258.213 271.666C256.373 268.841 252.592 268.042 249.767 269.882C206.087 298.325 147.589 292.175 110.672 255.258C67.3561 211.942 67.3561 141.462 110.672 98.1448C153.988 54.8292 224.468 54.8292 267.785 98.1448C304.653 135.014 310.837 193.461 282.487 237.119C280.651 239.947 281.455 243.728 284.282 245.563C287.111 247.399 290.89 246.596 292.726 243.768C307.873 220.441 314.691 192.267 311.924 164.436ZM158.615 20.7547C158.615 16.0423 162.449 12.2089 167.161 12.2089H211.111C215.823 12.2089 219.657 16.0423 219.657 20.7547C219.657 25.4671 215.823 29.3005 211.111 29.3005H210.016H168.256H167.161C162.449 29.3005 158.615 25.4665 158.615 20.7547ZM174.36 54.3476V41.5087H203.912V54.3256C194.099 53.1585 184.171 53.1658 174.36 54.3476Z" fill="white" fill-opacity="0.6"/>
<path d="M189.229 82.0073C137.015 82.0073 94.5359 124.486 94.5359 176.7C94.5359 228.914 137.015 271.393 189.229 271.393C241.442 271.393 283.922 228.914 283.922 176.7C283.922 124.486 241.442 82.0073 189.229 82.0073ZM189.229 259.185C143.746 259.185 106.744 222.182 106.744 176.7C106.744 131.218 143.746 94.2156 189.229 94.2156C234.711 94.2156 271.713 131.218 271.713 176.7C271.713 222.182 234.711 259.185 189.229 259.185Z" fill="white" fill-opacity="0.6"/>
<path d="M227.841 129.455L197.607 159.688C195.079 158.438 192.235 157.732 189.229 157.732C186.222 157.732 183.379 158.438 180.85 159.688L167.319 146.157C164.935 143.774 161.071 143.774 158.686 146.157C156.303 148.541 156.303 152.406 158.686 154.79L172.217 168.321C170.966 170.849 170.261 173.693 170.261 176.699C170.261 187.158 178.769 195.667 189.229 195.667C199.688 195.667 208.197 187.158 208.197 176.699C208.197 173.693 207.491 170.849 206.24 168.321L235.587 138.975L236.474 138.088C238.857 135.704 238.857 131.839 236.474 129.455C234.09 127.072 230.226 127.072 227.841 129.455ZM189.229 183.46C185.502 183.46 182.469 180.427 182.469 176.7C182.469 172.973 185.502 169.94 189.229 169.94C192.956 169.94 195.989 172.973 195.989 176.7C195.989 180.427 192.956 183.46 189.229 183.46Z" fill="white" fill-opacity="0.6"/>
<path d="M254.494 170.671H248.838C245.467 170.671 242.734 173.403 242.734 176.775C242.734 180.146 245.467 182.879 248.838 182.879H254.494C257.864 182.879 260.598 180.146 260.598 176.775C260.598 173.403 257.864 170.671 254.494 170.671Z" fill="white" fill-opacity="0.6"/>
<path d="M129.619 170.521H123.964C120.593 170.521 117.86 173.254 117.86 176.626C117.86 179.997 120.593 182.73 123.964 182.73H129.619C132.989 182.73 135.723 179.997 135.723 176.626C135.723 173.254 132.989 170.521 129.619 170.521Z" fill="white" fill-opacity="0.6"/>
<path d="M189.303 123.194C192.674 123.194 195.407 120.461 195.407 117.09V111.435C195.407 108.064 192.674 105.331 189.303 105.331C185.933 105.331 183.199 108.064 183.199 111.435V117.09C183.199 120.461 185.933 123.194 189.303 123.194Z" fill="white" fill-opacity="0.6"/>
<path d="M189.154 230.206C185.784 230.206 183.05 232.939 183.05 236.31V241.965C183.05 245.336 185.784 248.069 189.154 248.069C192.525 248.069 195.258 245.336 195.258 241.965V236.31C195.258 232.939 192.525 230.206 189.154 230.206Z" fill="white" fill-opacity="0.6"/>
<path d="M6.10404 208.26C4.49868 208.26 2.92384 208.913 1.78848 210.048C0.653132 211.184 0 212.758 0 214.364C0 215.975 0.652522 217.544 1.78848 218.679C2.92445 219.815 4.49868 220.468 6.10404 220.468C7.7094 220.468 9.28425 219.815 10.419 218.679C11.5543 217.544 12.2081 215.969 12.2081 214.364C12.2081 212.758 11.555 211.184 10.419 210.048C9.28425 208.913 7.7094 208.26 6.10404 208.26Z" fill="white" fill-opacity="0.6"/>
</svg>
