<svg width="23" height="20" viewBox="0 0 23 20" fill="none" xmlns="http://www.w3.org/2000/svg">
<path d="M7.3316 13.3335H7.33264C7.33351 13.3335 7.33438 13.3333 7.33525 13.3333H19.4222C19.7198 13.3333 19.9814 13.1359 20.0632 12.8498L22.7299 3.51649C22.7873 3.31528 22.7471 3.09896 22.6212 2.93195C22.4951 2.76493 22.2981 2.66667 22.0889 2.66667H5.7941L5.31754 0.522049C5.24965 0.217014 4.97917 0 4.66667 0H0.666667C0.298438 0 0 0.298438 0 0.666667C0 1.0349 0.298438 1.33333 0.666667 1.33333H4.13195C4.21632 1.71337 6.4125 11.5964 6.53889 12.1649C5.83038 12.4729 5.33333 13.1793 5.33333 14C5.33333 15.1028 6.23056 16 7.33334 16H19.4222C19.7905 16 20.0889 15.7016 20.0889 15.3333C20.0889 14.9651 19.7905 14.6667 19.4222 14.6667H7.33334C6.9658 14.6667 6.66667 14.3675 6.66667 14C6.66667 13.633 6.96476 13.3344 7.3316 13.3335ZM21.205 4L18.9193 12H7.86806L6.09028 4H21.205Z" fill="black"/>
<path d="M6.66669 18C6.66669 19.1028 7.56391 20 8.66669 20C9.76947 20 10.6667 19.1028 10.6667 18C10.6667 16.8972 9.76947 16 8.66669 16C7.56391 16 6.66669 16.8972 6.66669 18ZM8.66669 17.3333C9.03422 17.3333 9.33335 17.6325 9.33335 18C9.33335 18.3675 9.03422 18.6667 8.66669 18.6667C8.29915 18.6667 8.00002 18.3675 8.00002 18C8.00002 17.6325 8.29915 17.3333 8.66669 17.3333Z" fill="black"/>
<path d="M16.0889 18C16.0889 19.1028 16.9861 20 18.0889 20C19.1917 20 20.0889 19.1028 20.0889 18C20.0889 16.8972 19.1917 16 18.0889 16C16.9861 16 16.0889 16.8972 16.0889 18ZM18.0889 17.3333C18.4564 17.3333 18.7556 17.6325 18.7556 18C18.7556 18.3675 18.4564 18.6667 18.0889 18.6667C17.7214 18.6667 17.4222 18.3675 17.4222 18C17.4222 17.6325 17.7214 17.3333 18.0889 17.3333Z" fill="black"/>
</svg>
