<svg width="20" height="20" viewBox="0 0 20 20" fill="none" xmlns="http://www.w3.org/2000/svg">
<path d="M14.5862 0H5.41382C2.42859 0 0 2.42859 0 5.41382V14.5863C0 17.5714 2.42859 20 5.41382 20H14.5863C17.5714 20 20 17.5714 20 14.5863V5.41382C20 2.42859 17.5714 0 14.5862 0V0ZM18.8275 14.5863C18.8275 16.9249 16.9249 18.8275 14.5862 18.8275H5.41382C3.0751 18.8275 1.17249 16.9249 1.17249 14.5863V5.41382C1.17249 3.0751 3.0751 1.17249 5.41382 1.17249H14.5863C16.9249 1.17249 18.8275 3.0751 18.8275 5.41382V14.5863Z" fill="white"/>
<path d="M10 4.53125C6.98456 4.53125 4.5314 6.98441 4.5314 9.99985C4.5314 13.0153 6.98456 15.4684 10 15.4684C13.0154 15.4684 15.4686 13.0153 15.4686 9.99985C15.4686 6.98441 13.0154 4.53125 10 4.53125ZM10 14.296C7.63123 14.296 5.70389 12.3688 5.70389 9.99985C5.70389 7.63107 7.63123 5.70374 10 5.70374C12.3689 5.70374 14.2961 7.63107 14.2961 9.99985C14.2961 12.3688 12.3689 14.296 10 14.296Z" fill="white"/>
<path d="M15.5994 2.58948C14.7083 2.58948 13.9835 3.31442 13.9835 4.20538C13.9835 5.0965 14.7083 5.82144 15.5994 5.82144C16.4905 5.82144 17.2154 5.0965 17.2154 4.20538C17.2154 3.31427 16.4905 2.58948 15.5994 2.58948ZM15.5994 4.6488C15.3549 4.6488 15.1559 4.44983 15.1559 4.20538C15.1559 3.96078 15.3549 3.76196 15.5994 3.76196C15.844 3.76196 16.0429 3.96078 16.0429 4.20538C16.0429 4.44983 15.844 4.6488 15.5994 4.6488Z" fill="white"/>
</svg>
